<?xml version="1.0" encoding="UTF-8"?>
<svg xmlns="http://www.w3.org/2000/svg" xmlns:xlink="http://www.w3.org/1999/xlink" width="320pt" height="198pt" viewBox="0 0 320 198" version="1.1">
<g id="surface1">
<path style=" stroke:none;fill-rule:nonzero;fill:rgb(96.078431%,61.176471%,12.156863%);fill-opacity:1;" d="M 152.5 0.496094 C 157.265625 -0.0390625 162.117188 -0.171875 166.886719 0.402344 C 184.625 0.855469 202.199219 6.453125 216.769531 16.285156 C 229.902344 24.921875 240.707031 36.339844 250.789062 48.097656 C 260.632812 59.871094 272.84375 70.054688 287.082031 76.496094 C 294.332031 79.953125 302.222656 82.085938 310.242188 82.953125 C 313.480469 83.074219 316.726562 82.910156 319.964844 83 C 320.011719 86.554688 320.011719 90.101562 319.980469 93.652344 C 305.824219 94.074219 291.769531 90.574219 278.914062 84.988281 C 270.332031 80.960938 262.347656 75.761719 255.230469 69.609375 C 252.199219 66.667969 249.167969 63.738281 246.140625 60.796875 C 241.667969 56.054688 238.136719 50.566406 233.800781 45.714844 C 230.007812 41.832031 226.085938 38.074219 222.125 34.355469 C 213.320312 26.898438 203.371094 20.550781 192.34375 16.636719 C 183.996094 13.425781 175.0625 11.886719 166.148438 11.222656 C 160.722656 11.382812 155.242188 10.816406 149.867188 11.753906 C 131.542969 13.527344 114.742188 22.734375 101.582031 34.898438 C 98.324219 37.375 95.40625 40.265625 92.855469 43.421875 C 88.890625 47.363281 85.285156 51.617188 81.550781 55.757812 C 77.332031 59.847656 73.136719 63.964844 68.871094 68.015625 C 62.226562 73.453125 55.347656 78.769531 47.53125 82.558594 C 35.117188 88.933594 21.21875 92.71875 7.167969 93.199219 C 4.871094 93.550781 2.535156 93.621094 0.222656 93.375 C -0.0429688 89.726562 0.136719 86.070312 0.0585938 82.414062 C 12.226562 82.464844 24.265625 79.625 35.546875 75.347656 C 44.527344 71.589844 53.160156 66.84375 60.476562 60.496094 C 63.4375 57.703125 66.4375 54.933594 69.203125 51.949219 C 74.691406 45.34375 79.988281 38.554688 86.070312 32.4375 C 89.5 28.246094 93.523438 24.546875 97.777344 21.140625 C 112.535156 7.945312 132.519531 0.777344 152.5 0.496094 Z M 152.5 0.496094 "/>
<path style=" stroke:none;fill-rule:nonzero;fill:rgb(96.078431%,61.176471%,12.156863%);fill-opacity:1;" d="M 134.984375 33.285156 C 151.851562 33.25 168.710938 33.261719 185.578125 33.28125 C 185.820312 41.449219 185.136719 49.652344 186.066406 57.789062 C 186.042969 63.460938 186.117188 69.121094 186.28125 74.792969 C 200.546875 74.824219 214.808594 74.761719 229.078125 74.816406 C 229.15625 80.054688 228.84375 85.300781 229.558594 90.511719 C 229.421875 101.800781 229.859375 113.082031 229.683594 124.371094 C 215.21875 124.355469 200.746094 124.273438 186.28125 124.402344 C 186.125 130.113281 186.042969 135.8125 186.066406 141.519531 C 185.144531 149.65625 185.8125 157.863281 185.585938 166.03125 C 168.71875 166.050781 151.84375 166.0625 134.976562 166.023438 C 134.921875 151.976562 134.992188 137.941406 134.945312 123.894531 C 124.992188 123.882812 115.035156 123.835938 105.082031 123.925781 C 101.023438 124.5 96.914062 124.339844 92.824219 124.367188 C 92.6875 107.855469 92.804688 91.328125 92.769531 74.8125 C 106.828125 74.761719 120.890625 74.832031 134.945312 74.785156 C 134.996094 60.957031 134.914062 47.117188 134.984375 33.285156 M 152.421875 49.023438 C 152.191406 60.320312 152.359375 71.621094 152.34375 82.917969 C 149.578125 82.992188 146.820312 82.96875 144.0625 82.992188 C 144.042969 85.703125 144.0625 88.421875 144.035156 91.148438 C 132.5625 91.210938 121.085938 91.101562 109.605469 91.191406 C 108.753906 97.019531 108.984375 102.902344 109.003906 108.765625 C 120.675781 108.816406 132.355469 108.742188 144.027344 108.796875 C 144.046875 111.308594 144.046875 113.8125 144.0625 116.324219 C 146.820312 116.332031 149.578125 116.3125 152.339844 116.386719 C 152.332031 127.519531 152.234375 138.652344 152.382812 149.78125 C 158.253906 149.902344 164.121094 149.894531 169.992188 149.789062 C 170.070312 138.636719 169.972656 127.488281 170.03125 116.34375 C 172.621094 116.324219 175.207031 116.332031 177.796875 116.324219 C 177.816406 113.8125 177.816406 111.308594 177.820312 108.796875 C 189.320312 108.734375 200.816406 108.828125 212.316406 108.761719 C 212.445312 102.902344 212.433594 97.039062 212.328125 91.183594 C 201.070312 91.109375 189.167969 91.210938 177.910156 91.140625 C 177.742188 88.207031 177.933594 85.300781 177.78125 82.375 C 175.199219 82.351562 172.613281 82.351562 170.03125 82.335938 C 169.863281 71.289062 170.285156 60.21875 169.828125 49.175781 C 164.039062 48.773438 158.222656 49.050781 152.421875 49.023438 Z M 152.421875 49.023438 "/>
<path style=" stroke:none;fill-rule:nonzero;fill:rgb(96.078431%,61.176471%,12.156863%);fill-opacity:1;" d="M 157.046875 83.003906 C 159.636719 82.949219 162.21875 82.949219 164.8125 83 C 164.875 87.21875 164.773438 91.4375 164.851562 95.652344 C 169.140625 95.824219 173.4375 95.703125 177.730469 95.703125 C 177.855469 98.332031 177.855469 100.96875 177.738281 103.601562 C 173.4375 103.601562 169.140625 103.480469 164.851562 103.652344 C 164.773438 107.875 164.871094 112.089844 164.8125 116.3125 C 162.226562 116.363281 159.636719 116.355469 157.050781 116.304688 C 156.980469 112.089844 157.105469 107.875 157.007812 103.65625 C 152.714844 103.480469 148.417969 103.605469 144.121094 103.605469 C 143.996094 100.96875 143.996094 98.332031 144.121094 95.703125 C 148.417969 95.703125 152.714844 95.824219 157.007812 95.660156 C 157.097656 91.441406 156.988281 87.21875 157.046875 83.003906 Z M 157.046875 83.003906 "/>
<path style=" stroke:none;fill-rule:nonzero;fill:rgb(96.078431%,61.176471%,12.156863%);fill-opacity:1;" d="M 0.632812 103.878906 C 25.171875 103.550781 49.480469 113.441406 67.0625 129.929688 C 69.890625 131.792969 71.632812 134.707031 74.085938 136.953125 C 78.605469 141.464844 81.878906 146.964844 86.117188 151.707031 C 90.335938 156.003906 94.671875 160.210938 99.109375 164.300781 C 105.820312 169.769531 113.09375 174.675781 121.070312 178.257812 C 131.140625 183.226562 142.386719 185.75 153.625 186.449219 C 157.96875 187.105469 162.414062 186.933594 166.765625 186.347656 C 182.003906 185.59375 196.667969 179.761719 208.808594 170.933594 C 218.027344 164.457031 225.996094 156.503906 233.3125 148.089844 C 241.335938 138.914062 250.148438 130.332031 260.085938 123.09375 C 275.402344 111.964844 294.261719 105.488281 313.390625 104.859375 C 315.550781 104.550781 317.738281 104.476562 319.925781 104.5 C 320.050781 108.230469 320 111.957031 319.980469 115.6875 C 318.453125 115.6875 316.933594 115.664062 315.421875 115.683594 C 292.855469 117.449219 270.351562 126.234375 254.5625 142.269531 C 249.25 147.460938 245.003906 153.550781 240.050781 159.050781 C 229.027344 171.953125 216.140625 184.007812 200.058594 190.734375 C 191.246094 194.421875 181.722656 196.316406 172.199219 197.121094 C 168.480469 197.78125 164.679688 197.425781 160.929688 197.492188 C 156.558594 197.40625 152.144531 197.820312 147.820312 197.046875 C 133.226562 195.726562 118.890625 191.207031 106.535156 183.511719 C 93.003906 175.160156 81.78125 163.847656 71.535156 151.996094 C 61.523438 139.851562 49.480469 128.898438 34.988281 121.960938 C 27.953125 118.320312 20.21875 116.074219 12.34375 114.933594 C 8.480469 114.085938 4.507812 114.570312 0.59375 114.425781 C 0.554688 110.90625 0.515625 107.386719 0.632812 103.878906 Z M 0.632812 103.878906 "/>
</g>
</svg>
